# xmcd CD database file
#
# Track frame offsets:
#	150
#	14517
#	32927
#	52830
#	67010
#	85777
#	108365
#	122567
#	145452
#	161095
#	176407
#	194392
#	213512
#
# Disc length: 3104 seconds
#
# Revision: 3
# Processed by: cddbd v1.5.1PL0 Copyright (c) Steve Scherf et al.
# Submitted via: CDex 1.51
#
DISCID=b70c1e0d
DTITLE=Robert Palmer - "Addictions" Volume 1
DYEAR=1900
DGENRE=
TTITLE0=Bad Case Of Loving You (Doctor, Doctor)
TTITLE1=Pride
TTITLE2=Addicted To Love
TTITLE3=Sweet Lies
TTITLE4=Woke Up Laughing
TTITLE5=Looking For Clues
TTITLE6=Some Guys Have All The Luck
TTITLE7=Some Like It Hot
TTITLE8=What's It Take
TTITLE9=Every Kinda People
TTITLE10=Johnny and Mary
TTITLE11=Simply Irresistable
TTITLE12=Style Kills
EXTD=
EXTT0=
EXTT1=
EXTT2=
EXTT3=
EXTT4=
EXTT5=
EXTT6=
EXTT7=
EXTT8=
EXTT9=
EXTT10=
EXTT11=
EXTT12=
PLAYORDER=
